# MagicaVoxel @ Ephtracy

# group
o 

# material
mtllib data drive.mtl
usemtl palette

# normals
vn -1 0 0
vn 1 0 0
vn 0 0 1
vn 0 0 -1
vn 0 -1 0
vn 0 1 0

# texcoords
vt 0.587891 0.5
vt 0.970703 0.5
vt 0.986328 0.5

# verts
v -0.2 0 0.1
v -0.2 0 -0.1
v -0.2 0.1 0.1
v -0.2 0.1 -0.1
v -0.2 0.3 0.1
v -0.2 0.3 -0.1
v -0.2 0.5 0.1
v -0.2 0.5 -0.1
v -0.2 0.7 0.1
v -0.2 0.7 -0.1
v -0.2 0.8 0.1
v -0.2 0.8 -0.1
v -0.1 0 0.2
v -0.1 0 0.1
v -0.1 0 -0.1
v -0.1 0 -0.2
v -0.1 0.1 0.2
v -0.1 0.1 0.1
v -0.1 0.1 -0.1
v -0.1 0.1 -0.2
v -0.1 0.2 0.1
v -0.1 0.2 -0.1
v -0.1 0.3 0.2
v -0.1 0.3 0.1
v -0.1 0.3 -0.1
v -0.1 0.3 -0.2
v -0.1 0.5 0.2
v -0.1 0.5 0.1
v -0.1 0.5 -0.1
v -0.1 0.5 -0.2
v -0.1 0.6 0.1
v -0.1 0.6 -0.1
v -0.1 0.7 0.2
v -0.1 0.7 0.1
v -0.1 0.7 -0.1
v -0.1 0.7 -0.2
v -0.1 0.8 0.2
v -0.1 0.8 0.1
v -0.1 0.8 -0.1
v -0.1 0.8 -0.2
v 0.1 0 0.2
v 0.1 0 0.1
v 0.1 0 -0.1
v 0.1 0 -0.2
v 0.1 0.1 0.2
v 0.1 0.1 0.1
v 0.1 0.1 -0.1
v 0.1 0.1 -0.2
v 0.1 0.2 0.1
v 0.1 0.2 -0.1
v 0.1 0.3 0.2
v 0.1 0.3 0.1
v 0.1 0.3 -0.1
v 0.1 0.3 -0.2
v 0.1 0.5 0.2
v 0.1 0.5 0.1
v 0.1 0.5 -0.1
v 0.1 0.5 -0.2
v 0.1 0.6 0.1
v 0.1 0.6 -0.1
v 0.1 0.7 0.2
v 0.1 0.7 0.1
v 0.1 0.7 -0.1
v 0.1 0.7 -0.2
v 0.1 0.8 0.2
v 0.1 0.8 0.1
v 0.1 0.8 -0.1
v 0.1 0.8 -0.2
v 0.2 0 0.1
v 0.2 0 -0.1
v 0.2 0.1 0.1
v 0.2 0.1 -0.1
v 0.2 0.3 0.1
v 0.2 0.3 -0.1
v 0.2 0.5 0.1
v 0.2 0.5 -0.1
v 0.2 0.7 0.1
v 0.2 0.7 -0.1
v 0.2 0.8 0.1
v 0.2 0.8 -0.1
v -0.1 0 0.2
v -0.1 0.1 0.2
v -0.1 0.3 0.2
v -0.1 0.5 0.2
v -0.1 0.7 0.2
v -0.1 0.8 0.2
v 0.1 0 0.2
v 0.1 0.1 0.2
v 0.1 0.3 0.2
v 0.1 0.5 0.2
v 0.1 0.7 0.2
v 0.1 0.8 0.2
v -0.2 0 0.1
v -0.2 0.1 0.1
v -0.2 0.3 0.1
v -0.2 0.5 0.1
v -0.2 0.7 0.1
v -0.2 0.8 0.1
v -0.1 0 0.1
v -0.1 0.1 0.1
v -0.1 0.2 0.1
v -0.1 0.3 0.1
v -0.1 0.5 0.1
v -0.1 0.6 0.1
v -0.1 0.7 0.1
v -0.1 0.8 0.1
v 0.1 0 0.1
v 0.1 0.1 0.1
v 0.1 0.2 0.1
v 0.1 0.3 0.1
v 0.1 0.5 0.1
v 0.1 0.6 0.1
v 0.1 0.7 0.1
v 0.1 0.8 0.1
v 0.2 0 0.1
v 0.2 0.1 0.1
v 0.2 0.3 0.1
v 0.2 0.5 0.1
v 0.2 0.7 0.1
v 0.2 0.8 0.1
v -0.2 0 -0.1
v -0.2 0.1 -0.1
v -0.2 0.3 -0.1
v -0.2 0.5 -0.1
v -0.2 0.7 -0.1
v -0.2 0.8 -0.1
v -0.1 0 -0.1
v -0.1 0.1 -0.1
v -0.1 0.2 -0.1
v -0.1 0.3 -0.1
v -0.1 0.5 -0.1
v -0.1 0.6 -0.1
v -0.1 0.7 -0.1
v -0.1 0.8 -0.1
v 0.1 0 -0.1
v 0.1 0.1 -0.1
v 0.1 0.2 -0.1
v 0.1 0.3 -0.1
v 0.1 0.5 -0.1
v 0.1 0.6 -0.1
v 0.1 0.7 -0.1
v 0.1 0.8 -0.1
v 0.2 0 -0.1
v 0.2 0.1 -0.1
v 0.2 0.3 -0.1
v 0.2 0.5 -0.1
v 0.2 0.7 -0.1
v 0.2 0.8 -0.1
v -0.1 0 -0.2
v -0.1 0.1 -0.2
v -0.1 0.3 -0.2
v -0.1 0.5 -0.2
v -0.1 0.7 -0.2
v -0.1 0.8 -0.2
v 0.1 0 -0.2
v 0.1 0.1 -0.2
v 0.1 0.3 -0.2
v 0.1 0.5 -0.2
v 0.1 0.7 -0.2
v 0.1 0.8 -0.2
v -0.1 0 0.2
v 0.1 0 0.2
v -0.2 0 0.1
v -0.1 0 0.1
v 0.1 0 0.1
v 0.2 0 0.1
v -0.2 0 -0.1
v -0.1 0 -0.1
v 0.1 0 -0.1
v 0.2 0 -0.1
v -0.1 0 -0.2
v 0.1 0 -0.2
v -0.1 0.2 0.1
v 0.1 0.2 0.1
v -0.1 0.2 -0.1
v 0.1 0.2 -0.1
v -0.1 0.3 0.2
v 0.1 0.3 0.2
v -0.2 0.3 0.1
v -0.1 0.3 0.1
v 0.1 0.3 0.1
v 0.2 0.3 0.1
v -0.2 0.3 -0.1
v -0.1 0.3 -0.1
v 0.1 0.3 -0.1
v 0.2 0.3 -0.1
v -0.1 0.3 -0.2
v 0.1 0.3 -0.2
v -0.1 0.7 0.2
v 0.1 0.7 0.2
v -0.2 0.7 0.1
v -0.1 0.7 0.1
v 0.1 0.7 0.1
v 0.2 0.7 0.1
v -0.2 0.7 -0.1
v -0.1 0.7 -0.1
v 0.1 0.7 -0.1
v 0.2 0.7 -0.1
v -0.1 0.7 -0.2
v 0.1 0.7 -0.2
v -0.1 0.1 0.2
v 0.1 0.1 0.2
v -0.2 0.1 0.1
v -0.1 0.1 0.1
v 0.1 0.1 0.1
v 0.2 0.1 0.1
v -0.2 0.1 -0.1
v -0.1 0.1 -0.1
v 0.1 0.1 -0.1
v 0.2 0.1 -0.1
v -0.1 0.1 -0.2
v 0.1 0.1 -0.2
v -0.1 0.5 0.2
v 0.1 0.5 0.2
v -0.2 0.5 0.1
v -0.1 0.5 0.1
v 0.1 0.5 0.1
v 0.2 0.5 0.1
v -0.2 0.5 -0.1
v -0.1 0.5 -0.1
v 0.1 0.5 -0.1
v 0.2 0.5 -0.1
v -0.1 0.5 -0.2
v 0.1 0.5 -0.2
v -0.1 0.6 0.1
v 0.1 0.6 0.1
v -0.1 0.6 -0.1
v 0.1 0.6 -0.1
v -0.1 0.8 0.2
v 0.1 0.8 0.2
v -0.2 0.8 0.1
v -0.1 0.8 0.1
v 0.1 0.8 0.1
v 0.2 0.8 0.1
v -0.2 0.8 -0.1
v -0.1 0.8 -0.1
v 0.1 0.8 -0.1
v 0.2 0.8 -0.1
v -0.1 0.8 -0.2
v 0.1 0.8 -0.2

# faces
f 3/3/1 2/3/1 1/3/1
f 4/3/1 2/3/1 3/3/1
f 7/1/1 6/1/1 5/1/1
f 8/1/1 6/1/1 7/1/1
f 11/2/1 10/2/1 9/2/1
f 12/2/1 10/2/1 11/2/1
f 17/3/1 14/3/1 13/3/1
f 18/3/1 14/3/1 17/3/1
f 19/3/1 16/3/1 15/3/1
f 20/3/1 16/3/1 19/3/1
f 24/1/1 22/1/1 21/1/1
f 25/1/1 22/1/1 24/1/1
f 27/1/1 24/1/1 23/1/1
f 28/1/1 24/1/1 27/1/1
f 29/1/1 26/1/1 25/1/1
f 30/1/1 26/1/1 29/1/1
f 31/1/1 29/1/1 28/1/1
f 32/1/1 29/1/1 31/1/1
f 37/2/1 34/2/1 33/2/1
f 38/2/1 34/2/1 37/2/1
f 39/2/1 36/2/1 35/2/1
f 40/2/1 36/2/1 39/2/1
f 41/3/2 42/3/2 45/3/2
f 45/3/2 42/3/2 46/3/2
f 43/3/2 44/3/2 47/3/2
f 47/3/2 44/3/2 48/3/2
f 49/1/2 50/1/2 52/1/2
f 52/1/2 50/1/2 53/1/2
f 51/1/2 52/1/2 55/1/2
f 55/1/2 52/1/2 56/1/2
f 53/1/2 54/1/2 57/1/2
f 57/1/2 54/1/2 58/1/2
f 56/1/2 57/1/2 59/1/2
f 59/1/2 57/1/2 60/1/2
f 61/2/2 62/2/2 65/2/2
f 65/2/2 62/2/2 66/2/2
f 63/2/2 64/2/2 67/2/2
f 67/2/2 64/2/2 68/2/2
f 69/3/2 70/3/2 71/3/2
f 71/3/2 70/3/2 72/3/2
f 73/1/2 74/1/2 75/1/2
f 75/1/2 74/1/2 76/1/2
f 77/2/2 78/2/2 79/2/2
f 79/2/2 78/2/2 80/2/2
f 87/3/3 82/3/3 81/3/3
f 88/3/3 82/3/3 87/3/3
f 89/1/3 84/1/3 83/1/3
f 90/1/3 84/1/3 89/1/3
f 91/2/3 86/2/3 85/2/3
f 92/2/3 86/2/3 91/2/3
f 99/3/3 94/3/3 93/3/3
f 100/3/3 94/3/3 99/3/3
f 102/1/3 96/1/3 95/1/3
f 103/1/3 96/1/3 102/1/3
f 105/2/3 98/2/3 97/2/3
f 106/2/3 98/2/3 105/2/3
f 109/1/3 102/1/3 101/1/3
f 110/1/3 102/1/3 109/1/3
f 111/1/3 104/1/3 103/1/3
f 112/1/3 104/1/3 111/1/3
f 115/3/3 108/3/3 107/3/3
f 116/3/3 108/3/3 115/3/3
f 117/1/3 111/1/3 110/1/3
f 118/1/3 111/1/3 117/1/3
f 119/2/3 114/2/3 113/2/3
f 120/2/3 114/2/3 119/2/3
f 121/3/4 122/3/4 127/3/4
f 127/3/4 122/3/4 128/3/4
f 123/1/4 124/1/4 130/1/4
f 130/1/4 124/1/4 131/1/4
f 125/2/4 126/2/4 133/2/4
f 133/2/4 126/2/4 134/2/4
f 129/1/4 130/1/4 137/1/4
f 137/1/4 130/1/4 138/1/4
f 131/1/4 132/1/4 139/1/4
f 139/1/4 132/1/4 140/1/4
f 135/3/4 136/3/4 143/3/4
f 143/3/4 136/3/4 144/3/4
f 138/1/4 139/1/4 145/1/4
f 145/1/4 139/1/4 146/1/4
f 141/2/4 142/2/4 147/2/4
f 147/2/4 142/2/4 148/2/4
f 149/3/4 150/3/4 155/3/4
f 155/3/4 150/3/4 156/3/4
f 151/1/4 152/1/4 157/1/4
f 157/1/4 152/1/4 158/1/4
f 153/2/4 154/2/4 159/2/4
f 159/2/4 154/2/4 160/2/4
f 164/3/5 162/3/5 161/3/5
f 165/3/5 162/3/5 164/3/5
f 167/3/5 164/3/5 163/3/5
f 167/3/5 166/3/5 165/3/5
f 167/3/5 165/3/5 164/3/5
f 168/3/5 166/3/5 167/3/5
f 169/3/5 166/3/5 168/3/5
f 170/3/5 166/3/5 169/3/5
f 171/3/5 169/3/5 168/3/5
f 172/3/5 169/3/5 171/3/5
f 175/1/5 174/1/5 173/1/5
f 176/1/5 174/1/5 175/1/5
f 180/1/5 178/1/5 177/1/5
f 181/1/5 178/1/5 180/1/5
f 183/1/5 180/1/5 179/1/5
f 184/1/5 180/1/5 183/1/5
f 185/1/5 182/1/5 181/1/5
f 186/1/5 182/1/5 185/1/5
f 187/1/5 185/1/5 184/1/5
f 188/1/5 185/1/5 187/1/5
f 192/2/5 190/2/5 189/2/5
f 193/2/5 190/2/5 192/2/5
f 195/2/5 192/2/5 191/2/5
f 195/2/5 194/2/5 193/2/5
f 195/2/5 193/2/5 192/2/5
f 196/2/5 194/2/5 195/2/5
f 197/2/5 194/2/5 196/2/5
f 198/2/5 194/2/5 197/2/5
f 199/2/5 197/2/5 196/2/5
f 200/2/5 197/2/5 199/2/5
f 201/3/6 202/3/6 204/3/6
f 204/3/6 202/3/6 205/3/6
f 203/3/6 204/3/6 207/3/6
f 205/3/6 206/3/6 207/3/6
f 204/3/6 205/3/6 207/3/6
f 207/3/6 206/3/6 208/3/6
f 208/3/6 206/3/6 209/3/6
f 209/3/6 206/3/6 210/3/6
f 208/3/6 209/3/6 211/3/6
f 211/3/6 209/3/6 212/3/6
f 213/1/6 214/1/6 216/1/6
f 216/1/6 214/1/6 217/1/6
f 215/1/6 216/1/6 219/1/6
f 219/1/6 216/1/6 220/1/6
f 217/1/6 218/1/6 221/1/6
f 221/1/6 218/1/6 222/1/6
f 220/1/6 221/1/6 223/1/6
f 223/1/6 221/1/6 224/1/6
f 225/1/6 226/1/6 227/1/6
f 227/1/6 226/1/6 228/1/6
f 229/2/6 230/2/6 232/2/6
f 232/2/6 230/2/6 233/2/6
f 231/2/6 232/2/6 235/2/6
f 233/2/6 234/2/6 235/2/6
f 232/2/6 233/2/6 235/2/6
f 235/2/6 234/2/6 236/2/6
f 236/2/6 234/2/6 237/2/6
f 237/2/6 234/2/6 238/2/6
f 236/2/6 237/2/6 239/2/6
f 239/2/6 237/2/6 240/2/6
