# MagicaVoxel @ Ephtracy

# group
o 

# material
mtllib energy cell.mtl
usemtl palette

# normals
vn -1 0 0
vn 1 0 0
vn 0 0 1
vn 0 0 -1
vn 0 -1 0
vn 0 1 0

# texcoords
vt 0.0175781 0.5
vt 0.0917969 0.5
vt 0.845703 0.5
vt 0.857422 0.5
vt 0.990234 0.5

# verts
v -0.2 0 0.2
v -0.2 0 -0.2
v -0.2 0.1 0.1
v -0.2 0.1 -0.1
v -0.2 0.2 0.2
v -0.2 0.2 0.1
v -0.2 0.2 -0.1
v -0.2 0.2 -0.2
v -0.2 0.3 0.1
v -0.2 0.3 -0.1
v -0.2 0.4 0.1
v -0.2 0.4 -0.1
v -0.2 0.5 0.1
v -0.2 0.5 -0.1
v -0.2 0.6 0.2
v -0.2 0.6 0.1
v -0.2 0.6 -0.1
v -0.2 0.6 -0.2
v -0.2 0.7 0.1
v -0.2 0.7 -0.1
v -0.2 0.8 0.2
v -0.2 0.8 -0.2
v -0.1 0.2 0.1
v -0.1 0.2 -0.1
v -0.1 0.3 0.2
v -0.1 0.3 0.1
v -0.1 0.3 -0.1
v -0.1 0.3 -0.2
v -0.1 0.4 0.2
v -0.1 0.4 0.1
v -0.1 0.4 -0.1
v -0.1 0.4 -0.2
v -0.1 0.5 0.2
v -0.1 0.5 0.1
v -0.1 0.5 -0.1
v -0.1 0.5 -0.2
v -0.1 0.6 0.1
v -0.1 0.6 -0.1
v 0.1 0.1 0.2
v 0.1 0.1 0.1
v 0.1 0.1 -0.1
v 0.1 0.1 -0.2
v 0.1 0.2 0.2
v 0.1 0.2 0.1
v 0.1 0.2 -0.1
v 0.1 0.2 -0.2
v 0.1 0.6 0.2
v 0.1 0.6 0.1
v 0.1 0.6 -0.1
v 0.1 0.6 -0.2
v 0.1 0.7 0.2
v 0.1 0.7 0.1
v 0.1 0.7 -0.1
v 0.1 0.7 -0.2
v -0.1 0.1 0.2
v -0.1 0.1 0.1
v -0.1 0.1 -0.1
v -0.1 0.1 -0.2
v -0.1 0.2 0.2
v -0.1 0.2 0.1
v -0.1 0.2 -0.1
v -0.1 0.2 -0.2
v -0.1 0.6 0.2
v -0.1 0.6 0.1
v -0.1 0.6 -0.1
v -0.1 0.6 -0.2
v -0.1 0.7 0.2
v -0.1 0.7 0.1
v -0.1 0.7 -0.1
v -0.1 0.7 -0.2
v 0.1 0.2 0.1
v 0.1 0.2 -0.1
v 0.1 0.3 0.2
v 0.1 0.3 0.1
v 0.1 0.3 -0.1
v 0.1 0.3 -0.2
v 0.1 0.4 0.2
v 0.1 0.4 0.1
v 0.1 0.4 -0.1
v 0.1 0.4 -0.2
v 0.1 0.5 0.2
v 0.1 0.5 0.1
v 0.1 0.5 -0.1
v 0.1 0.5 -0.2
v 0.1 0.6 0.1
v 0.1 0.6 -0.1
v 0.2 0 0.2
v 0.2 0 -0.2
v 0.2 0.1 0.1
v 0.2 0.1 -0.1
v 0.2 0.2 0.2
v 0.2 0.2 0.1
v 0.2 0.2 -0.1
v 0.2 0.2 -0.2
v 0.2 0.3 0.1
v 0.2 0.3 -0.1
v 0.2 0.4 0.1
v 0.2 0.4 -0.1
v 0.2 0.5 0.1
v 0.2 0.5 -0.1
v 0.2 0.6 0.2
v 0.2 0.6 0.1
v 0.2 0.6 -0.1
v 0.2 0.6 -0.2
v 0.2 0.7 0.1
v 0.2 0.7 -0.1
v 0.2 0.8 0.2
v 0.2 0.8 -0.2
v -0.2 0 0.2
v -0.2 0.2 0.2
v -0.2 0.6 0.2
v -0.2 0.8 0.2
v -0.1 0.1 0.2
v -0.1 0.2 0.2
v -0.1 0.3 0.2
v -0.1 0.4 0.2
v -0.1 0.5 0.2
v -0.1 0.6 0.2
v -0.1 0.7 0.2
v 0.1 0.1 0.2
v 0.1 0.2 0.2
v 0.1 0.3 0.2
v 0.1 0.4 0.2
v 0.1 0.5 0.2
v 0.1 0.6 0.2
v 0.1 0.7 0.2
v 0.2 0 0.2
v 0.2 0.2 0.2
v 0.2 0.6 0.2
v 0.2 0.8 0.2
v -0.2 0.3 0.1
v -0.2 0.4 0.1
v -0.2 0.5 0.1
v -0.1 0.2 0.1
v -0.1 0.3 0.1
v -0.1 0.4 0.1
v -0.1 0.5 0.1
v -0.1 0.6 0.1
v 0.1 0.2 0.1
v 0.1 0.3 0.1
v 0.1 0.4 0.1
v 0.1 0.5 0.1
v 0.1 0.6 0.1
v 0.2 0.3 0.1
v 0.2 0.4 0.1
v 0.2 0.5 0.1
v -0.2 0.1 -0.1
v -0.2 0.2 -0.1
v -0.2 0.6 -0.1
v -0.2 0.7 -0.1
v -0.1 0.1 -0.1
v -0.1 0.2 -0.1
v -0.1 0.6 -0.1
v -0.1 0.7 -0.1
v 0.1 0.1 -0.1
v 0.1 0.2 -0.1
v 0.1 0.6 -0.1
v 0.1 0.7 -0.1
v 0.2 0.1 -0.1
v 0.2 0.2 -0.1
v 0.2 0.6 -0.1
v 0.2 0.7 -0.1
v -0.2 0.1 0.1
v -0.2 0.2 0.1
v -0.2 0.6 0.1
v -0.2 0.7 0.1
v -0.1 0.1 0.1
v -0.1 0.2 0.1
v -0.1 0.6 0.1
v -0.1 0.7 0.1
v 0.1 0.1 0.1
v 0.1 0.2 0.1
v 0.1 0.6 0.1
v 0.1 0.7 0.1
v 0.2 0.1 0.1
v 0.2 0.2 0.1
v 0.2 0.6 0.1
v 0.2 0.7 0.1
v -0.2 0.3 -0.1
v -0.2 0.4 -0.1
v -0.2 0.5 -0.1
v -0.1 0.2 -0.1
v -0.1 0.3 -0.1
v -0.1 0.4 -0.1
v -0.1 0.5 -0.1
v -0.1 0.6 -0.1
v 0.1 0.2 -0.1
v 0.1 0.3 -0.1
v 0.1 0.4 -0.1
v 0.1 0.5 -0.1
v 0.1 0.6 -0.1
v 0.2 0.3 -0.1
v 0.2 0.4 -0.1
v 0.2 0.5 -0.1
v -0.2 0 -0.2
v -0.2 0.2 -0.2
v -0.2 0.6 -0.2
v -0.2 0.8 -0.2
v -0.1 0.1 -0.2
v -0.1 0.2 -0.2
v -0.1 0.3 -0.2
v -0.1 0.4 -0.2
v -0.1 0.5 -0.2
v -0.1 0.6 -0.2
v -0.1 0.7 -0.2
v 0.1 0.1 -0.2
v 0.1 0.2 -0.2
v 0.1 0.3 -0.2
v 0.1 0.4 -0.2
v 0.1 0.5 -0.2
v 0.1 0.6 -0.2
v 0.1 0.7 -0.2
v 0.2 0 -0.2
v 0.2 0.2 -0.2
v 0.2 0.6 -0.2
v 0.2 0.8 -0.2
v -0.2 0 0.2
v 0.2 0 0.2
v -0.2 0 -0.2
v 0.2 0 -0.2
v -0.1 0.2 0.1
v 0.1 0.2 0.1
v -0.1 0.2 -0.1
v 0.1 0.2 -0.1
v -0.1 0.3 0.2
v 0.1 0.3 0.2
v -0.2 0.3 0.1
v -0.1 0.3 0.1
v 0.1 0.3 0.1
v 0.2 0.3 0.1
v -0.2 0.3 -0.1
v -0.1 0.3 -0.1
v 0.1 0.3 -0.1
v 0.2 0.3 -0.1
v -0.1 0.3 -0.2
v 0.1 0.3 -0.2
v -0.2 0.6 0.2
v -0.1 0.6 0.2
v 0.1 0.6 0.2
v 0.2 0.6 0.2
v -0.2 0.6 0.1
v -0.1 0.6 0.1
v 0.1 0.6 0.1
v 0.2 0.6 0.1
v -0.2 0.6 -0.1
v -0.1 0.6 -0.1
v 0.1 0.6 -0.1
v 0.2 0.6 -0.1
v -0.2 0.6 -0.2
v -0.1 0.6 -0.2
v 0.1 0.6 -0.2
v 0.2 0.6 -0.2
v -0.1 0.7 0.2
v 0.1 0.7 0.2
v -0.2 0.7 0.1
v -0.1 0.7 0.1
v 0.1 0.7 0.1
v 0.2 0.7 0.1
v -0.2 0.7 -0.1
v -0.1 0.7 -0.1
v 0.1 0.7 -0.1
v 0.2 0.7 -0.1
v -0.1 0.7 -0.2
v 0.1 0.7 -0.2
v -0.1 0.1 0.2
v 0.1 0.1 0.2
v -0.2 0.1 0.1
v -0.1 0.1 0.1
v 0.1 0.1 0.1
v 0.2 0.1 0.1
v -0.2 0.1 -0.1
v -0.1 0.1 -0.1
v 0.1 0.1 -0.1
v 0.2 0.1 -0.1
v -0.1 0.1 -0.2
v 0.1 0.1 -0.2
v -0.2 0.2 0.2
v -0.1 0.2 0.2
v 0.1 0.2 0.2
v 0.2 0.2 0.2
v -0.2 0.2 0.1
v -0.1 0.2 0.1
v 0.1 0.2 0.1
v 0.2 0.2 0.1
v -0.2 0.2 -0.1
v -0.1 0.2 -0.1
v 0.1 0.2 -0.1
v 0.2 0.2 -0.1
v -0.2 0.2 -0.2
v -0.1 0.2 -0.2
v 0.1 0.2 -0.2
v 0.2 0.2 -0.2
v -0.1 0.5 0.2
v 0.1 0.5 0.2
v -0.2 0.5 0.1
v -0.1 0.5 0.1
v 0.1 0.5 0.1
v 0.2 0.5 0.1
v -0.2 0.5 -0.1
v -0.1 0.5 -0.1
v 0.1 0.5 -0.1
v 0.2 0.5 -0.1
v -0.1 0.5 -0.2
v 0.1 0.5 -0.2
v -0.1 0.6 0.1
v 0.1 0.6 0.1
v -0.1 0.6 -0.1
v 0.1 0.6 -0.1
v -0.2 0.8 0.2
v 0.2 0.8 0.2
v -0.2 0.8 -0.2
v 0.2 0.8 -0.2

# faces
f 3/5/1 2/5/1 1/5/1
f 4/5/1 2/5/1 3/5/1
f 5/5/1 3/5/1 1/5/1
f 6/5/1 3/5/1 5/5/1
f 7/5/1 2/5/1 4/5/1
f 8/5/1 2/5/1 7/5/1
f 11/3/1 10/3/1 9/3/1
f 12/3/1 10/3/1 11/3/1
f 13/2/1 12/2/1 11/2/1
f 14/2/1 12/2/1 13/2/1
f 19/5/1 16/5/1 15/5/1
f 20/5/1 18/5/1 17/5/1
f 21/5/1 19/5/1 15/5/1
f 21/5/1 20/5/1 19/5/1
f 22/5/1 18/5/1 20/5/1
f 22/5/1 20/5/1 21/5/1
f 26/4/1 24/4/1 23/4/1
f 27/4/1 24/4/1 26/4/1
f 29/3/1 26/3/1 25/3/1
f 30/3/1 26/3/1 29/3/1
f 31/3/1 28/3/1 27/3/1
f 32/3/1 28/3/1 31/3/1
f 33/2/1 30/2/1 29/2/1
f 34/2/1 30/2/1 33/2/1
f 35/2/1 32/2/1 31/2/1
f 36/2/1 32/2/1 35/2/1
f 37/1/1 35/1/1 34/1/1
f 38/1/1 35/1/1 37/1/1
f 43/5/1 40/5/1 39/5/1
f 44/5/1 40/5/1 43/5/1
f 45/5/1 42/5/1 41/5/1
f 46/5/1 42/5/1 45/5/1
f 51/5/1 48/5/1 47/5/1
f 52/5/1 48/5/1 51/5/1
f 53/5/1 50/5/1 49/5/1
f 54/5/1 50/5/1 53/5/1
f 55/5/2 56/5/2 59/5/2
f 59/5/2 56/5/2 60/5/2
f 57/5/2 58/5/2 61/5/2
f 61/5/2 58/5/2 62/5/2
f 63/5/2 64/5/2 67/5/2
f 67/5/2 64/5/2 68/5/2
f 65/5/2 66/5/2 69/5/2
f 69/5/2 66/5/2 70/5/2
f 71/4/2 72/4/2 74/4/2
f 74/4/2 72/4/2 75/4/2
f 73/3/2 74/3/2 77/3/2
f 77/3/2 74/3/2 78/3/2
f 75/3/2 76/3/2 79/3/2
f 79/3/2 76/3/2 80/3/2
f 77/2/2 78/2/2 81/2/2
f 81/2/2 78/2/2 82/2/2
f 79/2/2 80/2/2 83/2/2
f 83/2/2 80/2/2 84/2/2
f 82/1/2 83/1/2 85/1/2
f 85/1/2 83/1/2 86/1/2
f 87/5/2 88/5/2 89/5/2
f 89/5/2 88/5/2 90/5/2
f 87/5/2 89/5/2 91/5/2
f 91/5/2 89/5/2 92/5/2
f 90/5/2 88/5/2 93/5/2
f 93/5/2 88/5/2 94/5/2
f 95/3/2 96/3/2 97/3/2
f 97/3/2 96/3/2 98/3/2
f 97/2/2 98/2/2 99/2/2
f 99/2/2 98/2/2 100/2/2
f 101/5/2 102/5/2 105/5/2
f 103/5/2 104/5/2 106/5/2
f 101/5/2 105/5/2 107/5/2
f 105/5/2 106/5/2 107/5/2
f 106/5/2 104/5/2 108/5/2
f 107/5/2 106/5/2 108/5/2
f 113/5/3 110/5/3 109/5/3
f 114/5/3 110/5/3 113/5/3
f 118/5/3 112/5/3 111/5/3
f 119/5/3 112/5/3 118/5/3
f 120/5/3 113/5/3 109/5/3
f 122/3/3 116/3/3 115/3/3
f 123/2/3 117/2/3 116/2/3
f 123/3/3 116/3/3 122/3/3
f 124/2/3 117/2/3 123/2/3
f 126/5/3 112/5/3 119/5/3
f 127/5/3 121/5/3 120/5/3
f 127/5/3 120/5/3 109/5/3
f 128/5/3 121/5/3 127/5/3
f 129/5/3 126/5/3 125/5/3
f 130/5/3 112/5/3 126/5/3
f 130/5/3 126/5/3 129/5/3
f 135/3/3 132/3/3 131/3/3
f 136/2/3 133/2/3 132/2/3
f 136/3/3 132/3/3 135/3/3
f 137/2/3 133/2/3 136/2/3
f 139/4/3 135/4/3 134/4/3
f 140/4/3 135/4/3 139/4/3
f 142/1/3 138/1/3 137/1/3
f 143/1/3 138/1/3 142/1/3
f 144/3/3 141/3/3 140/3/3
f 145/2/3 142/2/3 141/2/3
f 145/3/3 141/3/3 144/3/3
f 146/2/3 142/2/3 145/2/3
f 151/5/3 148/5/3 147/5/3
f 152/5/3 148/5/3 151/5/3
f 153/5/3 150/5/3 149/5/3
f 154/5/3 150/5/3 153/5/3
f 159/5/3 156/5/3 155/5/3
f 160/5/3 156/5/3 159/5/3
f 161/5/3 158/5/3 157/5/3
f 162/5/3 158/5/3 161/5/3
f 163/5/4 164/5/4 167/5/4
f 167/5/4 164/5/4 168/5/4
f 165/5/4 166/5/4 169/5/4
f 169/5/4 166/5/4 170/5/4
f 171/5/4 172/5/4 175/5/4
f 175/5/4 172/5/4 176/5/4
f 173/5/4 174/5/4 177/5/4
f 177/5/4 174/5/4 178/5/4
f 179/3/4 180/3/4 183/3/4
f 180/2/4 181/2/4 184/2/4
f 183/3/4 180/3/4 184/3/4
f 184/2/4 181/2/4 185/2/4
f 182/4/4 183/4/4 187/4/4
f 187/4/4 183/4/4 188/4/4
f 185/1/4 186/1/4 190/1/4
f 190/1/4 186/1/4 191/1/4
f 188/3/4 189/3/4 192/3/4
f 189/2/4 190/2/4 193/2/4
f 192/3/4 189/3/4 193/3/4
f 193/2/4 190/2/4 194/2/4
f 195/5/4 196/5/4 199/5/4
f 199/5/4 196/5/4 200/5/4
f 197/5/4 198/5/4 204/5/4
f 204/5/4 198/5/4 205/5/4
f 195/5/4 199/5/4 206/5/4
f 201/3/4 202/3/4 208/3/4
f 202/2/4 203/2/4 209/2/4
f 208/3/4 202/3/4 209/3/4
f 209/2/4 203/2/4 210/2/4
f 205/5/4 198/5/4 212/5/4
f 206/5/4 207/5/4 213/5/4
f 195/5/4 206/5/4 213/5/4
f 213/5/4 207/5/4 214/5/4
f 211/5/4 212/5/4 215/5/4
f 212/5/4 198/5/4 216/5/4
f 215/5/4 212/5/4 216/5/4
f 219/5/5 218/5/5 217/5/5
f 220/5/5 218/5/5 219/5/5
f 223/4/5 222/4/5 221/4/5
f 224/4/5 222/4/5 223/4/5
f 228/3/5 226/3/5 225/3/5
f 229/3/5 226/3/5 228/3/5
f 231/3/5 228/3/5 227/3/5
f 232/3/5 228/3/5 231/3/5
f 233/3/5 230/3/5 229/3/5
f 234/3/5 230/3/5 233/3/5
f 235/3/5 233/3/5 232/3/5
f 236/3/5 233/3/5 235/3/5
f 241/5/5 238/5/5 237/5/5
f 242/5/5 238/5/5 241/5/5
f 243/5/5 240/5/5 239/5/5
f 244/5/5 240/5/5 243/5/5
f 249/5/5 246/5/5 245/5/5
f 250/5/5 246/5/5 249/5/5
f 251/5/5 248/5/5 247/5/5
f 252/5/5 248/5/5 251/5/5
f 256/5/5 254/5/5 253/5/5
f 257/5/5 254/5/5 256/5/5
f 259/5/5 256/5/5 255/5/5
f 259/5/5 258/5/5 257/5/5
f 259/5/5 257/5/5 256/5/5
f 260/5/5 258/5/5 259/5/5
f 261/5/5 258/5/5 260/5/5
f 262/5/5 258/5/5 261/5/5
f 263/5/5 261/5/5 260/5/5
f 264/5/5 261/5/5 263/5/5
f 265/5/6 266/5/6 268/5/6
f 268/5/6 266/5/6 269/5/6
f 267/5/6 268/5/6 271/5/6
f 269/5/6 270/5/6 271/5/6
f 268/5/6 269/5/6 271/5/6
f 271/5/6 270/5/6 272/5/6
f 272/5/6 270/5/6 273/5/6
f 273/5/6 270/5/6 274/5/6
f 272/5/6 273/5/6 275/5/6
f 275/5/6 273/5/6 276/5/6
f 277/5/6 278/5/6 281/5/6
f 281/5/6 278/5/6 282/5/6
f 279/5/6 280/5/6 283/5/6
f 283/5/6 280/5/6 284/5/6
f 285/5/6 286/5/6 289/5/6
f 289/5/6 286/5/6 290/5/6
f 287/5/6 288/5/6 291/5/6
f 291/5/6 288/5/6 292/5/6
f 293/2/6 294/2/6 296/2/6
f 296/2/6 294/2/6 297/2/6
f 295/2/6 296/2/6 299/2/6
f 299/2/6 296/2/6 300/2/6
f 297/2/6 298/2/6 301/2/6
f 301/2/6 298/2/6 302/2/6
f 300/2/6 301/2/6 303/2/6
f 303/2/6 301/2/6 304/2/6
f 305/1/6 306/1/6 307/1/6
f 307/1/6 306/1/6 308/1/6
f 309/5/6 310/5/6 311/5/6
f 311/5/6 310/5/6 312/5/6
