# MagicaVoxel @ Ephtracy

# group
o 

# material
mtllib file cabinet.mtl
usemtl palette

# normals
vn -1 0 0
vn 1 0 0
vn 0 0 1
vn 0 0 -1
vn 0 -1 0
vn 0 1 0

# texcoords
vt 0.185547 0.5
vt 0.978516 0.5
vt 0.994141 0.5

# verts
v -0.4 0 0.4
v -0.4 0 -0.4
v -0.4 1.6 0.4
v -0.4 1.6 -0.4
v 0.4 0 0.4
v 0.4 0 -0.4
v 0.4 1.4 0.4
v 0.4 1.4 0.3
v 0.4 1.5 0.4
v 0.4 1.5 0.3
v 0.4 1.6 0.4
v 0.4 1.6 -0.4
v -0.4 0 0.4
v -0.4 1.6 0.4
v -0.3 0.1 0.4
v -0.3 1.5 0.4
v -0.2 0.2 0.4
v -0.2 0.6 0.4
v -0.2 0.7 0.4
v -0.2 1 0.4
v -0.2 1.1 0.4
v -0.2 1.4 0.4
v -0.1 0.4 0.4
v -0.1 0.5 0.4
v -0.1 0.8 0.4
v -0.1 0.9 0.4
v -0.1 1.2 0.4
v -0.1 1.3 0.4
v 0.1 0.4 0.4
v 0.1 0.5 0.4
v 0.1 0.8 0.4
v 0.1 0.9 0.4
v 0.1 1.2 0.4
v 0.1 1.3 0.4
v 0.2 0.2 0.4
v 0.2 0.6 0.4
v 0.2 0.7 0.4
v 0.2 1 0.4
v 0.2 1.1 0.4
v 0.2 1.4 0.4
v 0.3 0.1 0.4
v 0.3 1.4 0.4
v 0.3 1.5 0.4
v 0.4 0 0.4
v 0.4 1.4 0.4
v 0.4 1.5 0.4
v 0.4 1.6 0.4
v -0.4 0 -0.4
v -0.4 1.6 -0.4
v 0.4 0 -0.4
v 0.4 1.6 -0.4
v -0.4 0 0.4
v 0.4 0 0.4
v -0.4 0 -0.4
v 0.4 0 -0.4
v -0.4 1.6 0.4
v 0.4 1.6 0.4
v -0.4 1.6 -0.4
v 0.4 1.6 -0.4

# faces
f 3/1/1 2/1/1 1/1/1
f 4/1/1 2/1/1 3/1/1
f 5/1/2 6/1/2 7/1/2
f 7/1/2 6/1/2 8/1/2
f 7/2/2 8/2/2 9/2/2
f 8/1/2 6/1/2 10/1/2
f 9/2/2 8/2/2 10/2/2
f 9/1/2 10/1/2 11/1/2
f 10/1/2 6/1/2 12/1/2
f 11/1/2 10/1/2 12/1/2
f 15/1/3 14/1/3 13/1/3
f 16/1/3 14/1/3 15/1/3
f 17/3/3 16/3/3 15/3/3
f 18/3/3 16/3/3 17/3/3
f 19/3/3 16/3/3 18/3/3
f 20/3/3 16/3/3 19/3/3
f 21/3/3 16/3/3 20/3/3
f 22/3/3 16/3/3 21/3/3
f 23/1/3 18/1/3 17/1/3
f 24/1/3 18/1/3 23/1/3
f 25/1/3 20/1/3 19/1/3
f 26/1/3 20/1/3 25/1/3
f 27/1/3 22/1/3 21/1/3
f 28/1/3 22/1/3 27/1/3
f 29/1/3 23/1/3 17/1/3
f 29/2/3 24/2/3 23/2/3
f 30/1/3 18/1/3 24/1/3
f 30/2/3 24/2/3 29/2/3
f 31/1/3 25/1/3 19/1/3
f 31/2/3 26/2/3 25/2/3
f 32/1/3 20/1/3 26/1/3
f 32/2/3 26/2/3 31/2/3
f 33/2/3 28/2/3 27/2/3
f 33/1/3 27/1/3 21/1/3
f 34/1/3 22/1/3 28/1/3
f 34/2/3 28/2/3 33/2/3
f 35/3/3 17/3/3 15/3/3
f 35/1/3 29/1/3 17/1/3
f 35/1/3 30/1/3 29/1/3
f 36/3/3 19/3/3 18/3/3
f 36/1/3 30/1/3 35/1/3
f 36/1/3 18/1/3 30/1/3
f 37/1/3 31/1/3 19/1/3
f 37/3/3 19/3/3 36/3/3
f 37/1/3 32/1/3 31/1/3
f 38/3/3 21/3/3 20/3/3
f 38/1/3 32/1/3 37/1/3
f 38/1/3 20/1/3 32/1/3
f 39/1/3 34/1/3 33/1/3
f 39/3/3 21/3/3 38/3/3
f 39/1/3 33/1/3 21/1/3
f 40/1/3 22/1/3 34/1/3
f 40/1/3 34/1/3 39/1/3
f 40/3/3 16/3/3 22/3/3
f 41/1/3 15/1/3 13/1/3
f 41/3/3 39/3/3 38/3/3
f 41/3/3 40/3/3 39/3/3
f 41/3/3 37/3/3 36/3/3
f 41/3/3 38/3/3 37/3/3
f 41/3/3 35/3/3 15/3/3
f 41/3/3 36/3/3 35/3/3
f 42/3/3 16/3/3 40/3/3
f 42/3/3 40/3/3 41/3/3
f 43/1/3 14/1/3 16/1/3
f 43/3/3 16/3/3 42/3/3
f 44/1/3 41/1/3 13/1/3
f 44/1/3 42/1/3 41/1/3
f 45/2/3 43/2/3 42/2/3
f 45/1/3 42/1/3 44/1/3
f 46/1/3 14/1/3 43/1/3
f 46/2/3 43/2/3 45/2/3
f 47/1/3 14/1/3 46/1/3
f 48/1/4 49/1/4 50/1/4
f 50/1/4 49/1/4 51/1/4
f 54/1/5 53/1/5 52/1/5
f 55/1/5 53/1/5 54/1/5
f 56/1/6 57/1/6 58/1/6
f 58/1/6 57/1/6 59/1/6
